# xmcd
#
# Track frame offsets:
# 150
# 16962
# 34727
# 48172
# 65390
# 79637
# 97672
# 113890
# 128550
# 142045
# 155830
# 173605
#
# Disc length: 2537 seconds
#
#
# Revision: 0
# Processed by: cddbd v1.5.1PL0 Copyright (c) Steve Scherf et al.
# Submitted via: FreeRIP 2.70 
#
DISCID=8e09e70c
DTITLE=Davis, Mac - 36 All-Time Greatest Hits - Disc 2
DYEAR=2000
DGENRE=Country
TTITLE0=Forever Lovers
TTITLE1=Texas In My Rear View Mirror
TTITLE2=In The Ghetto
TTITLE3=Memories
TTITLE4=Watching Scotty Grow
TTITLE5=Something's Burning
TTITLE6=I Believe In Music
TTITLE7=The Lonesomest Lonesome
TTITLE8=Friend, Lover, Woman, Wife
TTITLE9=Kiss It And Make It Better
TTITLE10=Where Did The Good Times Go
TTITLE11=Picking Up The Pieces Of My Life
EXTD=Entered By Itaot...
EXTT0=
EXTT1=
EXTT2=
EXTT3=
EXTT4=
EXTT5=
EXTT6=
EXTT7=
EXTT8=
EXTT9=
EXTT10=
EXTT11=
PLAYORDER=
